<svg xmlns="http://www.w3.org/2000/svg" xmlns:xlink="http://www.w3.org/1999/xlink" version="1.1" x="0px" y="0px" viewBox="0 0 54.691 68.36375000000001" enable-background="new 0 0 54.691 54.691" xml:space="preserve"><g><path d="M-4318.56-68.404c-43.25,0-78.438,35.186-78.438,78.435c0,43.252,35.188,78.438,78.438,78.438s78.436-35.188,78.436-78.438   C-4240.124-33.218-4275.31-68.404-4318.56-68.404z M-4318.867-35.187c13.682,0,24.771,11.092,24.771,24.771   c0,13.682-11.092,24.771-24.771,24.771c-13.683,0-24.771-11.092-24.771-24.771C-4343.639-24.095-4332.55-35.187-4318.867-35.187z    M-4274.686,65.074c-12.042,9.627-27.292,15.396-43.874,15.396c-16.562,0-31.797-5.75-43.834-15.354   c1.116-19.851,14.187-39.903,30.178-39.903h27.332c16.024,0,29.128,19.324,30.197,39.206c0.001,0.002,0.001,0.004,0.001,0.006   S-4274.686,64.786-4274.686,65.074z"/></g><path fill="#000000" d="M8.908,47.913c0-8.672,5.656-15.7,12.634-15.7h11.404c6.979,0,12.634,7.028,12.634,15.7"/><circle fill="#000000" cx="27.244" cy="16.296" r="10.615"/></svg>